<svg xmlns="http://www.w3.org/2000/svg" xmlns:xlink="http://www.w3.org/1999/xlink" width="232.273" height="128.091" viewBox="0 0 232.273 128.091"><defs><linearGradient id="a" y1="0.5" x2="1.509" y2="0.5" gradientUnits="objectBoundingBox"><stop offset="0" stop-color="#e0f3ff"/><stop offset="1" stop-color="#b3d2e8"/></linearGradient><linearGradient id="b" x1="-1.568" y1="0.646" x2="1" y2="0.646" xlink:href="#a"/></defs><g transform="translate(-62.246 -835.611)"><path d="M79.283,896.187a25.233,25.233,0,0,1-7.152-3.471,26.294,26.294,0,0,1-6.941-6.731,15.306,15.306,0,0,1-2.944-9.149,13.446,13.446,0,0,1,.841-4.627c0-.138.033-.631.1-1.473a13.286,13.286,0,0,1,.316-2.1,30.1,30.1,0,0,1,10.727-17.352,60.928,60.928,0,0,1,20.612-10.622,108.843,108.843,0,0,1,25.449-4.627q2.731-.207,5.259-.315t4.837-.106A150.726,150.726,0,0,1,154.58,837.4q10.934,1.789,21.664,3.681a166.509,166.509,0,0,0,23.346,2.314,21.331,21.331,0,0,1,5.363-4.943,12.344,12.344,0,0,1,4.1-1.788,5.524,5.524,0,0,1,1.683-.21,7.017,7.017,0,0,1,3.785,1.051,3.139,3.139,0,0,1,1.682,2.735,4.7,4.7,0,0,1-1.682,3.155,31.309,31.309,0,0,1-4.207,3.365,41.658,41.658,0,0,0-5.677,4.838,47.927,47.927,0,0,0-6.836,8.1,15.937,15.937,0,0,0-3.051,8.939,9.369,9.369,0,0,0,1.684,5.679.876.876,0,0,1,.21.631q0,1.475-1.683,1.473a3.463,3.463,0,0,1-2.524-1.473q-1.893-2.312-1.893-9.044a36.739,36.739,0,0,1,.841-7.572,30.261,30.261,0,0,1,2.524-7.362c.559-.841,1.052-1.646,1.472-2.418a15.426,15.426,0,0,1,1.472-2.209,185.659,185.659,0,0,1-30.076-1.156,246.213,246.213,0,0,0-29.656-1.788,129.189,129.189,0,0,0-19.351,1.682,120.477,120.477,0,0,0-21.453,5.363,56.59,56.59,0,0,0-18.088,10.1,28.4,28.4,0,0,0-9.675,15.88c-.141.562-.246,1.051-.316,1.472a7.464,7.464,0,0,0-.1,1.262,9.779,9.779,0,0,0,2.419,6.73,21.512,21.512,0,0,0,5.573,4.522,30.2,30.2,0,0,1,4.838,3.261c.979.562,1.473,1.124,1.473,1.682a1.026,1.026,0,0,1-.947,1.052A4.134,4.134,0,0,1,79.283,896.187ZM100.105,963.7a14.91,14.91,0,0,1-2.524-.42A26.912,26.912,0,0,1,94,962.23c-1.124-.42-1.755-.914-1.893-1.472q-.423-4.2,2.209-11.989a157,157,0,0,1,7.151-17.247q4.521-9.465,9.36-18.509a84.723,84.723,0,0,1-8.624.631,5.514,5.514,0,0,1-3.47-1.473,4.9,4.9,0,0,1-1.788-4,4.467,4.467,0,0,1,2.314-3.68,18.319,18.319,0,0,1,5.153-2.419,16.729,16.729,0,0,1,4.1-.842,3.9,3.9,0,0,1,3.786,2c.7,1.335,1.4,2,2.1,2h.842q3.154-5.884,5.573-10.516t3.891-7.361a14.648,14.648,0,0,0,1.683-5.89,8.825,8.825,0,0,0-.105-1.577,4.051,4.051,0,0,0-.316-.947,19.618,19.618,0,0,1,3.155-6.73,58.866,58.866,0,0,1,6.731-8.414,44.04,44.04,0,0,1,8.518-7.045,16.431,16.431,0,0,1,8.728-2.84,18.407,18.407,0,0,1,4.417.946,15.97,15.97,0,0,1,5.679,3.05,5.768,5.768,0,0,1,2.1,5.469,4.646,4.646,0,0,0-2.524-1.052q-5.679,0-12.409,6.1A97.651,97.651,0,0,0,136.7,884.3q-6.94,9.78-13.251,20.718,3.575-.42,7.152-.842t7.151-1.052q7.572-1.05,15.669-2.1a120.317,120.317,0,0,1,15.459-1.052,13.139,13.139,0,0,1,2.735.316c.979.21,1.472.6,1.472,1.157,0,.283-.316.667-.947,1.157a16.526,16.526,0,0,1-3.47,1.787,74.846,74.846,0,0,1-11.778,2.735q-8.415,1.473-18.615,2.839t-19.244,2.419q-5.261,9.889-9.465,18.614t-6.31,13.987A29.511,29.511,0,0,0,102,948.769a11.709,11.709,0,0,0-.421,2.734q0,2.948,2.1,2.945a5.659,5.659,0,0,0,3.154-1.157,16.886,16.886,0,0,0,3.155-2.839q2.313-2.732,4.207-5.154t3.365-2a.872.872,0,0,1,.21.631,5.192,5.192,0,0,1-1.261,2.945c-.842,1.124-1.335,1.755-1.473,1.893q-1.685,2.1-4.1,5.679a48.148,48.148,0,0,1-5.153,6.415A7.935,7.935,0,0,1,100.105,963.7Z" fill="url(#a)"/><path d="M233.381,934.79a39.15,39.15,0,0,1-14.731-2.7,23.215,23.215,0,0,1-10.642-8.329q-3.933-5.628-3.933-14.422a45.214,45.214,0,0,1,1.388-10.642,72.345,72.345,0,0,1,7.173-18.2,96.987,96.987,0,0,1,12.03-17.121,100.468,100.468,0,0,1,15.347-14.267,77.6,77.6,0,0,1,17.2-9.872,46.428,46.428,0,0,1,17.66-3.624,32.78,32.78,0,0,1,5.4.463q6.167,1.08,9.177,4.55a11.783,11.783,0,0,1,3.008,7.943,19.2,19.2,0,0,1-3.393,10.489,46.576,46.576,0,0,1-8.87,9.948,78.461,78.461,0,0,1-11.876,8.407,84.566,84.566,0,0,1-12.571,6.015,38.931,38.931,0,0,1-10.95,2.622q-2.933.156-2.931-1.7a2.829,2.829,0,0,1,1-1.929,4.413,4.413,0,0,1,2.854-1.156,52.141,52.141,0,0,0,22.442-7.327A41.792,41.792,0,0,0,284.126,856.9a24.554,24.554,0,0,0,1.928-4.7,16.3,16.3,0,0,0,.694-4.55,8.934,8.934,0,0,0-1.928-5.784q-1.931-2.39-6.71-2.391-5.245,0-12.339,3.162a82.02,82.02,0,0,0-14.884,8.869,117.888,117.888,0,0,0-15.27,13.5A113.179,113.179,0,0,0,222.2,881.961a80.36,80.36,0,0,0-9.177,19.358,37.124,37.124,0,0,0-2,11.414q0,9.41,6.478,13.805t16.812,4.4a71.663,71.663,0,0,0,19.666-3.085,81.566,81.566,0,0,0,20.9-9.486,59.322,59.322,0,0,0,17.121-16.273,1.339,1.339,0,0,1,1.079-.617,1.558,1.558,0,0,1,1.158.617.89.89,0,0,1,.077,1.234,72.155,72.155,0,0,1-18.432,18.047,78.179,78.179,0,0,1-21.517,10.179A75,75,0,0,1,233.381,934.79Z" fill="url(#b)"/></g></svg>