<svg xmlns="http://www.w3.org/2000/svg" width="99.812" height="80" viewBox="0 0 99.812 80"><g transform="translate(-64 -40)"><path d="M93.5,48.714h12.338V40h6.13V65.426H86.542V59.3h19.3V54.844H93.5Z" fill="#99690d"/><path d="M95.256,87.77V75.432H86.542V69.3h25.426V94.729h-6.13v-19.3h-4.453V87.77Z" fill="#d6a100"/><path d="M134.311,86.015H121.973v8.714h-6.129V69.3H141.27v6.13h-19.3v4.453h12.338Z" fill="#99690d"/><path d="M132.556,46.959V59.3h8.714v6.129H115.844V40h6.129V59.3h4.454V46.959Z" fill="#d6a100"/><path d="M67.282,114.994v3.677h1.236v1.063H64v-1.063h1.063v-8.5H64V109.1h7.707v2.127H70.558v-1.063H67.282v3.763H69.5v-.711h1.063v2.486H69.5v-.711Z" fill="#a3731a"/><path d="M76.6,110.167v8.5h1.063v1.063H73.32v-1.063h1.063v-8.5H73.32V109.1h4.346v1.064Z" fill="#a3731a"/><path d="M82.482,115.194v3.477h.891v1.063h-4.08v-1.063h1.063v-8.5H79.293V109.1h4.583a4.35,4.35,0,0,1,2.643.694,2.315,2.315,0,0,1,.927,1.971,3.185,3.185,0,0,1-.515,1.839,3.3,3.3,0,0,1-1.551,1.171l2.805,3.893H88.9v1.063H86.167l-2.866-4.54Zm0-1.019h.373a2.562,2.562,0,0,0,1.818-.571,2.253,2.253,0,0,0,.6-1.713,1.585,1.585,0,0,0-.521-1.294,2.409,2.409,0,0,0-1.562-.43h-.711Z" fill="#a3731a"/><path d="M90.531,119.576V117.22h1.243v1.107a5.383,5.383,0,0,0,1,.488,2.665,2.665,0,0,0,.88.165,1.865,1.865,0,0,0,1.285-.434,1.452,1.452,0,0,0,.489-1.139,1.784,1.784,0,0,0-.309-1.085,4.008,4.008,0,0,0-1.2-.9l-.711-.387a7.114,7.114,0,0,1-2.054-1.545,2.579,2.579,0,0,1-.611-1.688,2.712,2.712,0,0,1,.948-2.137,3.577,3.577,0,0,1,2.443-.829,11.214,11.214,0,0,1,1.555.108,10.861,10.861,0,0,1,1.533.33v2.155H95.782v-1.02a4.122,4.122,0,0,0-.877-.42,2.607,2.607,0,0,0-.826-.141,1.41,1.41,0,0,0-1.038.432,1.432,1.432,0,0,0-.427,1.048,1.275,1.275,0,0,0,.309.862,4.546,4.546,0,0,0,1.163.855l.719.417a7.989,7.989,0,0,1,2.14,1.609,2.647,2.647,0,0,1,.589,1.724,2.836,2.836,0,0,1-1.084,2.33,4.47,4.47,0,0,1-2.888.873,10.136,10.136,0,0,1-1.426-.108A16.172,16.172,0,0,1,90.531,119.576Z" fill="#a3731a"/><path d="M102.71,110.253h-2.7V111.4H98.86v-2.3h9.919v2.3H107.63v-1.149h-2.7v8.418h1.063v1.063h-4.346v-1.063h1.064Z" fill="#a3731a"/><path d="M124.677,119.31a8.828,8.828,0,0,1-3.505.69,5.646,5.646,0,0,1-4.155-1.476,5.565,5.565,0,0,1,4.083-9.686,12.8,12.8,0,0,1,1.688.115,16.062,16.062,0,0,1,1.8.345v2.226h-1.15l-.114-1.063a5.189,5.189,0,0,0-1.094-.42,4.456,4.456,0,0,0-1.1-.14,2.773,2.773,0,0,0-2.378,1.2,5.558,5.558,0,0,0-.865,3.305,4.879,4.879,0,0,0,1,3.232,3.331,3.331,0,0,0,2.7,1.192,6.645,6.645,0,0,0,3.1-.783Z" fill="#a3731a"/><path d="M134.515,119.734h-8.088v-1.063h1.063v-8.5h-1.063V109.1h4.345v1.064h-1.063v8.418h3.656v-1.156h1.15Z" fill="#a3731a"/><path d="M138.51,116.653l-.8,2.018h1.066v1.063H135.9v-1.063h.628l3.835-9.7h1.661l3.83,9.7h.626v1.063h-3.972v-1.063h1.067l-.8-2.018Zm.437-1.106h3.387l-1.7-4.274Z" fill="#a3731a"/><path d="M148.054,119.576V117.22H149.3v1.107a5.444,5.444,0,0,0,1,.488,2.67,2.67,0,0,0,.881.165,1.863,1.863,0,0,0,1.285-.434,1.456,1.456,0,0,0,.489-1.139,1.784,1.784,0,0,0-.309-1.085,4.008,4.008,0,0,0-1.2-.9l-.711-.387a7.1,7.1,0,0,1-2.054-1.545,2.579,2.579,0,0,1-.611-1.688,2.712,2.712,0,0,1,.948-2.137,3.575,3.575,0,0,1,2.442-.829,11.214,11.214,0,0,1,1.555.108,10.785,10.785,0,0,1,1.534.33v2.155H153.3v-1.02a4.116,4.116,0,0,0-.876-.42,2.607,2.607,0,0,0-.826-.141,1.41,1.41,0,0,0-1.038.432,1.432,1.432,0,0,0-.427,1.048,1.275,1.275,0,0,0,.309.862,4.51,4.51,0,0,0,1.163.855l.719.417a8,8,0,0,1,2.141,1.609,2.652,2.652,0,0,1,.589,1.724,2.835,2.835,0,0,1-1.086,2.33,4.466,4.466,0,0,1-2.887.873,10.136,10.136,0,0,1-1.426-.108A16.173,16.173,0,0,1,148.054,119.576Z" fill="#a3731a"/><path d="M156.809,119.576V117.22h1.242v1.107a5.384,5.384,0,0,0,1,.488,2.669,2.669,0,0,0,.88.165,1.866,1.866,0,0,0,1.286-.434,1.455,1.455,0,0,0,.488-1.139,1.777,1.777,0,0,0-.309-1.085,4.008,4.008,0,0,0-1.2-.9l-.71-.387a7.106,7.106,0,0,1-2.055-1.545,2.579,2.579,0,0,1-.611-1.688,2.713,2.713,0,0,1,.949-2.137,3.573,3.573,0,0,1,2.442-.829,11.2,11.2,0,0,1,1.555.108,10.844,10.844,0,0,1,1.534.33v2.155h-1.243v-1.02a4.139,4.139,0,0,0-.876-.42,2.612,2.612,0,0,0-.826-.141,1.406,1.406,0,0,0-1.038.432,1.428,1.428,0,0,0-.427,1.048,1.27,1.27,0,0,0,.309.862,4.51,4.51,0,0,0,1.163.855l.718.417a7.981,7.981,0,0,1,2.141,1.609,2.652,2.652,0,0,1,.589,1.724,2.837,2.837,0,0,1-1.085,2.33,4.469,4.469,0,0,1-2.888.873,10.122,10.122,0,0,1-1.425-.108A16.061,16.061,0,0,1,156.809,119.576Z" fill="#a3731a"/></g></svg>